<mxfile host="app.diagrams.net" modified="2021-05-24T08:32:01.339Z" agent="5.0 (X11)" etag="kCz6U7ocjlFHrbaEKoka" version="14.7.0" type="github">
  <diagram name="Page-1" id="13e1069c-82ec-6db2-03f1-153e76fe0fe0">
    <mxGraphModel dx="1531" dy="673" grid="1" gridSize="10" guides="1" tooltips="1" connect="1" arrows="1" fold="1" page="0" pageScale="1" pageWidth="1100" pageHeight="850" math="0" shadow="0">
      <root>
        <mxCell id="0" />
        <mxCell id="1" parent="0" />
        <mxCell id="7baba1c4bc27f4b0-2" value="camxhaldevice.cpp" style="shape=umlLifeline;perimeter=lifelinePerimeter;whiteSpace=wrap;html=1;container=1;collapsible=0;recursiveResize=0;outlineConnect=0;rounded=1;shadow=0;comic=0;labelBackgroundColor=none;strokeWidth=1;fontFamily=Verdana;fontSize=12;align=center;fillColor=#B2C9AB;strokeColor=#788AA3;fontColor=#46495D;" parent="1" vertex="1">
          <mxGeometry x="160" y="80" width="110" height="580" as="geometry" />
        </mxCell>
        <mxCell id="7baba1c4bc27f4b0-10" value="" style="html=1;points=[];perimeter=orthogonalPerimeter;rounded=0;shadow=0;comic=0;labelBackgroundColor=none;strokeWidth=1;fontFamily=Verdana;fontSize=12;align=center;fillColor=#B2C9AB;strokeColor=#788AA3;fontColor=#46495D;" parent="7baba1c4bc27f4b0-2" vertex="1">
          <mxGeometry x="50" y="100" width="10" height="230" as="geometry" />
        </mxCell>
        <mxCell id="ibQGJqlAU9jTsbNS9SOp-7" value="" style="html=1;points=[];perimeter=orthogonalPerimeter;rounded=0;sketch=0;fontColor=#46495D;strokeColor=#788AA3;fillColor=#B2C9AB;" vertex="1" parent="7baba1c4bc27f4b0-2">
          <mxGeometry x="60" y="120" width="10" height="40" as="geometry" />
        </mxCell>
        <mxCell id="ibQGJqlAU9jTsbNS9SOp-8" value="CHIModuleInitialize" style="edgeStyle=orthogonalEdgeStyle;html=1;align=left;spacingLeft=2;endArrow=block;rounded=0;entryX=1;entryY=0;fontColor=#46495D;strokeColor=#788AA3;fillColor=#B2C9AB;" edge="1" target="ibQGJqlAU9jTsbNS9SOp-7" parent="7baba1c4bc27f4b0-2">
          <mxGeometry relative="1" as="geometry">
            <mxPoint x="50" y="100" as="sourcePoint" />
            <Array as="points">
              <mxPoint x="80" y="100" />
            </Array>
          </mxGeometry>
        </mxCell>
        <mxCell id="7baba1c4bc27f4b0-3" value="chxextensioninterface.cpp" style="shape=umlLifeline;perimeter=lifelinePerimeter;whiteSpace=wrap;html=1;container=1;collapsible=0;recursiveResize=0;outlineConnect=0;rounded=1;shadow=0;comic=0;labelBackgroundColor=none;strokeWidth=1;fontFamily=Verdana;fontSize=12;align=center;fillColor=#B2C9AB;strokeColor=#788AA3;fontColor=#46495D;" parent="1" vertex="1">
          <mxGeometry x="400" y="80" width="160" height="580" as="geometry" />
        </mxCell>
        <mxCell id="7baba1c4bc27f4b0-13" value="" style="html=1;points=[];perimeter=orthogonalPerimeter;rounded=0;shadow=0;comic=0;labelBackgroundColor=none;strokeWidth=1;fontFamily=Verdana;fontSize=12;align=center;fillColor=#B2C9AB;strokeColor=#788AA3;fontColor=#46495D;" parent="7baba1c4bc27f4b0-3" vertex="1">
          <mxGeometry x="75" y="130" width="10" height="200" as="geometry" />
        </mxCell>
        <mxCell id="7baba1c4bc27f4b0-5" value="chxusecaseutils.cpp" style="shape=umlLifeline;perimeter=lifelinePerimeter;whiteSpace=wrap;html=1;container=1;collapsible=0;recursiveResize=0;outlineConnect=0;rounded=1;shadow=0;comic=0;labelBackgroundColor=none;strokeWidth=1;fontFamily=Verdana;fontSize=12;align=center;fillColor=#B2C9AB;strokeColor=#788AA3;fontColor=#46495D;" parent="1" vertex="1">
          <mxGeometry x="900" y="80" width="120" height="580" as="geometry" />
        </mxCell>
        <mxCell id="ibQGJqlAU9jTsbNS9SOp-12" value="" style="html=1;points=[];perimeter=orthogonalPerimeter;rounded=0;sketch=0;fontColor=#46495D;strokeColor=#788AA3;fillColor=#B2C9AB;" vertex="1" parent="7baba1c4bc27f4b0-5">
          <mxGeometry x="55" y="160" width="10" height="80" as="geometry" />
        </mxCell>
        <mxCell id="ibQGJqlAU9jTsbNS9SOp-15" value="" style="html=1;points=[];perimeter=orthogonalPerimeter;rounded=0;sketch=0;fontColor=#46495D;strokeColor=#788AA3;fillColor=#B2C9AB;" vertex="1" parent="7baba1c4bc27f4b0-5">
          <mxGeometry x="55" y="280" width="10" height="80" as="geometry" />
        </mxCell>
        <mxCell id="7baba1c4bc27f4b0-6" value="chxmulticamerabase.cpp" style="shape=umlLifeline;perimeter=lifelinePerimeter;whiteSpace=wrap;html=1;container=1;collapsible=0;recursiveResize=0;outlineConnect=0;rounded=1;shadow=0;comic=0;labelBackgroundColor=none;strokeWidth=1;fontFamily=Verdana;fontSize=12;align=center;fillColor=#B2C9AB;strokeColor=#788AA3;fontColor=#46495D;" parent="1" vertex="1">
          <mxGeometry x="1100" y="80" width="170" height="710" as="geometry" />
        </mxCell>
        <mxCell id="ibQGJqlAU9jTsbNS9SOp-17" value="" style="html=1;points=[];perimeter=orthogonalPerimeter;rounded=0;sketch=0;fontColor=#46495D;strokeColor=#788AA3;fillColor=#B2C9AB;" vertex="1" parent="7baba1c4bc27f4b0-6">
          <mxGeometry x="80" y="280" width="10" height="260" as="geometry" />
        </mxCell>
        <mxCell id="ibQGJqlAU9jTsbNS9SOp-20" value="" style="html=1;points=[];perimeter=orthogonalPerimeter;rounded=0;sketch=0;fontColor=#46495D;strokeColor=#788AA3;fillColor=#B2C9AB;" vertex="1" parent="7baba1c4bc27f4b0-6">
          <mxGeometry x="90" y="320" width="10" height="180" as="geometry" />
        </mxCell>
        <mxCell id="ibQGJqlAU9jTsbNS9SOp-21" value="Initialize" style="edgeStyle=orthogonalEdgeStyle;html=1;align=left;spacingLeft=2;endArrow=block;rounded=0;entryX=1;entryY=0;fontColor=#46495D;strokeColor=#788AA3;fillColor=#B2C9AB;" edge="1" target="ibQGJqlAU9jTsbNS9SOp-20" parent="7baba1c4bc27f4b0-6">
          <mxGeometry relative="1" as="geometry">
            <mxPoint x="90" y="310" as="sourcePoint" />
            <Array as="points">
              <mxPoint x="90" y="280" />
              <mxPoint x="130" y="280" />
              <mxPoint x="130" y="320" />
            </Array>
          </mxGeometry>
        </mxCell>
        <mxCell id="7baba1c4bc27f4b0-7" value=":Object" style="shape=umlLifeline;perimeter=lifelinePerimeter;whiteSpace=wrap;html=1;container=1;collapsible=0;recursiveResize=0;outlineConnect=0;rounded=1;shadow=0;comic=0;labelBackgroundColor=none;strokeWidth=1;fontFamily=Verdana;fontSize=12;align=center;fillColor=#B2C9AB;strokeColor=#788AA3;fontColor=#46495D;" parent="1" vertex="1">
          <mxGeometry x="1340" y="80" width="100" height="580" as="geometry" />
        </mxCell>
        <mxCell id="7baba1c4bc27f4b0-8" value="camxhal3.cpp" style="shape=umlLifeline;perimeter=lifelinePerimeter;whiteSpace=wrap;html=1;container=1;collapsible=0;recursiveResize=0;outlineConnect=0;rounded=1;shadow=0;comic=0;labelBackgroundColor=none;strokeWidth=1;fontFamily=Verdana;fontSize=12;align=center;fillColor=#B2C9AB;strokeColor=#788AA3;fontColor=#46495D;" parent="1" vertex="1">
          <mxGeometry x="-10" y="80" width="100" height="580" as="geometry" />
        </mxCell>
        <mxCell id="7baba1c4bc27f4b0-9" value="" style="html=1;points=[];perimeter=orthogonalPerimeter;rounded=0;shadow=0;comic=0;labelBackgroundColor=none;strokeWidth=1;fontFamily=Verdana;fontSize=12;align=center;fillColor=#B2C9AB;strokeColor=#788AA3;fontColor=#46495D;" parent="7baba1c4bc27f4b0-8" vertex="1">
          <mxGeometry x="45" y="100" width="10" height="440" as="geometry" />
        </mxCell>
        <mxCell id="7baba1c4bc27f4b0-11" value="ConfigureStreams" style="html=1;verticalAlign=bottom;endArrow=block;entryX=0;entryY=0;labelBackgroundColor=none;fontFamily=Verdana;fontSize=12;edgeStyle=elbowEdgeStyle;elbow=vertical;strokeColor=#788AA3;fontColor=#46495D;" parent="1" source="7baba1c4bc27f4b0-9" target="7baba1c4bc27f4b0-10" edge="1">
          <mxGeometry relative="1" as="geometry">
            <mxPoint x="220" y="190" as="sourcePoint" />
          </mxGeometry>
        </mxCell>
        <mxCell id="7baba1c4bc27f4b0-14" value="chi_initialize_override_session" style="html=1;verticalAlign=bottom;endArrow=block;entryX=0;entryY=0;labelBackgroundColor=none;fontFamily=Verdana;fontSize=12;elbow=vertical;strokeColor=#788AA3;fontColor=#46495D;" parent="1" target="7baba1c4bc27f4b0-13" edge="1">
          <mxGeometry relative="1" as="geometry">
            <mxPoint x="230" y="210" as="sourcePoint" />
          </mxGeometry>
        </mxCell>
        <mxCell id="ibQGJqlAU9jTsbNS9SOp-2" value="configure_streams" style="text;html=1;align=center;verticalAlign=middle;resizable=0;points=[];autosize=1;strokeColor=none;fontColor=#46495D;" vertex="1" parent="1">
          <mxGeometry x="-80" y="160" width="110" height="20" as="geometry" />
        </mxCell>
        <mxCell id="7baba1c4bc27f4b0-4" value="chxextensionmodule.cpp" style="shape=umlLifeline;perimeter=lifelinePerimeter;whiteSpace=wrap;html=1;container=1;collapsible=0;recursiveResize=0;outlineConnect=0;rounded=1;shadow=0;comic=0;labelBackgroundColor=none;strokeWidth=1;fontFamily=Verdana;fontSize=12;align=center;fillColor=#B2C9AB;strokeColor=#788AA3;fontColor=#46495D;" parent="1" vertex="1">
          <mxGeometry x="630" y="80" width="180" height="580" as="geometry" />
        </mxCell>
        <mxCell id="ibQGJqlAU9jTsbNS9SOp-11" style="edgeStyle=none;rounded=1;sketch=0;orthogonalLoop=1;jettySize=auto;html=1;fontColor=#46495D;strokeColor=#788AA3;fillColor=#B2C9AB;" edge="1" parent="7baba1c4bc27f4b0-4" source="ibQGJqlAU9jTsbNS9SOp-10" target="7baba1c4bc27f4b0-4">
          <mxGeometry relative="1" as="geometry" />
        </mxCell>
        <mxCell id="ibQGJqlAU9jTsbNS9SOp-10" value="" style="html=1;points=[];perimeter=orthogonalPerimeter;rounded=0;sketch=0;fontColor=#46495D;strokeColor=#788AA3;fillColor=#B2C9AB;" vertex="1" parent="7baba1c4bc27f4b0-4">
          <mxGeometry x="85" y="150" width="10" height="360" as="geometry" />
        </mxCell>
        <mxCell id="ibQGJqlAU9jTsbNS9SOp-9" value="&lt;b&gt;InitializeOverrideSession&lt;/b&gt;" style="html=1;verticalAlign=bottom;startArrow=oval;startFill=1;endArrow=block;startSize=8;fontColor=#46495D;strokeColor=#788AA3;fillColor=#B2C9AB;" edge="1" parent="1" target="ibQGJqlAU9jTsbNS9SOp-10">
          <mxGeometry width="60" relative="1" as="geometry">
            <mxPoint x="488" y="229" as="sourcePoint" />
            <mxPoint x="740" y="380" as="targetPoint" />
          </mxGeometry>
        </mxCell>
        <mxCell id="ibQGJqlAU9jTsbNS9SOp-14" value="GetMatchingUsecase" style="html=1;verticalAlign=bottom;endArrow=block;fontColor=#46495D;strokeColor=#788AA3;fillColor=#B2C9AB;entryX=-0.1;entryY=-0.006;entryDx=0;entryDy=0;entryPerimeter=0;" edge="1" parent="1" target="ibQGJqlAU9jTsbNS9SOp-12">
          <mxGeometry width="80" relative="1" as="geometry">
            <mxPoint x="720" y="240" as="sourcePoint" />
            <mxPoint x="1120" y="380" as="targetPoint" />
          </mxGeometry>
        </mxCell>
        <mxCell id="ibQGJqlAU9jTsbNS9SOp-16" value="CreateUsecaseObject" style="html=1;verticalAlign=bottom;endArrow=block;fontColor=#46495D;strokeColor=#788AA3;fillColor=#B2C9AB;" edge="1" parent="1" source="7baba1c4bc27f4b0-4">
          <mxGeometry width="80" relative="1" as="geometry">
            <mxPoint x="880" y="360" as="sourcePoint" />
            <mxPoint x="960" y="360" as="targetPoint" />
          </mxGeometry>
        </mxCell>
        <mxCell id="ibQGJqlAU9jTsbNS9SOp-19" value="Create" style="html=1;verticalAlign=bottom;endArrow=block;fontColor=#46495D;strokeColor=#788AA3;fillColor=#B2C9AB;" edge="1" parent="1" source="7baba1c4bc27f4b0-5">
          <mxGeometry width="80" relative="1" as="geometry">
            <mxPoint x="1100" y="360" as="sourcePoint" />
            <mxPoint x="1180" y="360" as="targetPoint" />
          </mxGeometry>
        </mxCell>
      </root>
    </mxGraphModel>
  </diagram>
</mxfile>
